<?xml version="1.0" encoding="utf-8"?>
<!-- Generator: Adobe Illustrator 19.0.1, SVG Export Plug-In . SVG Version: 6.00 Build 0)  -->
<svg version="1.1" xmlns="http://www.w3.org/2000/svg" xmlns:xlink="http://www.w3.org/1999/xlink" x="0px" y="0px"
	 viewBox="0 0 625.5 293.1" style="enable-background:new 0 0 625.5 293.1;" xml:space="preserve">
<style type="text/css">
	.st0{fill:none;}
	.st1{fill:#FFFFFF;}
	.st2{font-family:'HelveticaNeue-Medium';}
	.st3{font-size:36px;}
	.st4{fill:none;stroke:#BCBA40;stroke-width:4;stroke-linecap:round;stroke-miterlimit:10;stroke-dasharray:12.0321,12.0321;}
	.st5{fill:none;stroke:#BCBA40;stroke-width:4;stroke-miterlimit:10;}
	.st6{fill:#3C3C3B;}
	.st7{fill:none;stroke:#BCBA40;stroke-width:2;stroke-linecap:round;stroke-linejoin:round;}
	.st8{fill:#BCBA40;}
	.st9{fill:#3C3C3B;stroke:#BCBA40;stroke-width:2;stroke-miterlimit:10;}
	.st10{fill:none;stroke:#BCBA40;stroke-width:2;stroke-miterlimit:10;}
</style>
<g id="Layer_1">
	<g>
		<rect x="152.4" y="214.1" class="st0" width="312.7" height="36.3"/>
		<text transform="matrix(1 0 0 1 152.4047 239.7939)" class="st1 st2 st3">BSMS Video casts</text>
		<g>
			<path class="st4" d="M584,268H33.5c-6.6,0-12-5.4-12-12v-230c0-6.6,5.4-12,12-12H584c6.6,0,12,5.4,12,12v230
				C596,262.6,590.6,268,584,268z"/>
		</g>
	</g>
</g>
<g id="Layer_2">
	<path class="st5" d="M381.5,141.7H219.8c-3.1,0-5.7-2.6-5.7-5.7V36.2c0-3.1,2.6-5.7,5.7-5.7h161.7c3.1,0,5.7,2.6,5.7,5.7V136
		C387.1,139.1,384.6,141.7,381.5,141.7z"/>
	<path class="st6" d="M376,143.1h-7.3c-0.4,0-0.8-0.3-0.8-0.8v-1.5c0-0.4,0.3-0.8,0.8-0.8h7.3c0.4,0,0.8,0.3,0.8,0.8v1.5
		C376.7,142.8,376.4,143.1,376,143.1z"/>
	<path class="st6" d="M363.4,143.1h-7.3c-0.4,0-0.8-0.3-0.8-0.8v-1.5c0-0.4,0.3-0.8,0.8-0.8h7.3c0.4,0,0.8,0.3,0.8,0.8v1.5
		C364.1,142.8,363.8,143.1,363.4,143.1z"/>
	<g>
		<path class="st6" d="M343.5,140.7c0,29.4-24.5,53.3-54.8,53.3c-30.3,0-54.9-23.9-54.9-53.3c0-29.4,24.6-53.2,54.9-53.2
			C318.9,87.5,343.5,111.3,343.5,140.7L343.5,140.7z M343.5,140.7"/>
		<g>
			<path class="st7" d="M233.8,129.7h12.6c1,0,2,0.2,2.9,0.5c5.9-16.5,21.4-27.4,39-27.4c17,0,32.3,10.5,38.5,26.3
				c1.4-1,3.1-1.5,4.8-1.5h10.8c-4.1-26.5-27.2-46.4-54.1-46.4C260.7,81.2,237,102.4,233.8,129.7z"/>
			<path class="st8" d="M243.2,118.2l2,1c8.9-15.4,25.4-24.9,43.2-24.9c17.7,0,34.2,9.5,43.2,24.9l2-1
				c-7.4-18.7-25.1-30.8-45.1-30.8C268.3,87.5,250.5,99.6,243.2,118.2z"/>
		</g>
		<path class="st9" d="M347.2,169.3h-17.8c-1.6,0-2.8-1.3-2.8-2.8v-29c0-1.6,1.3-2.8,2.8-2.8h17.8c1.6,0,2.8,1.3,2.8,2.8v29
			C350.1,168,348.8,169.3,347.2,169.3z"/>
		<path class="st9" d="M248.7,170.7H231c-1.6,0-2.8-1.3-2.8-2.8v-29c0-1.6,1.3-2.8,2.8-2.8h17.8c1.6,0,2.8,1.3,2.8,2.8v29
			C251.6,169.4,250.3,170.7,248.7,170.7z"/>
		<path class="st10" d="M249.3,175.1c9.4,11.8,23.9,18.9,39,18.9c16.2,0,31.2-7.8,40.6-20.9 M323.2,166.4"/>
	</g>
</g>
</svg>
